HIERARCHY
ROOT SpineBase
{
  OFFSET 0.000000 0.000000 0.000000
  CHANNELS 6 Xposition Yposition Zposition Zrotation Xrotation Yrotation
  JOINT SpineMid
  {
    OFFSET 0.000000 26.957782 0.000000
    CHANNELS 3 Zrotation Xrotation Yrotation
    JOINT SpineShoulder
    {
      OFFSET 0.014573 20.055987 -0.755015
      CHANNELS 3 Zrotation Xrotation Yrotation
      JOINT Neck
      {
        OFFSET -0.002770 6.651678 -0.552404
        CHANNELS 3 Zrotation Xrotation Yrotation
        JOINT Head
        {
          OFFSET 1.772041 12.426683 -0.308739
          CHANNELS 3 Zrotation Xrotation Yrotation
          End Site
          {
            OFFSET 0 0 0
          }
        }
      }
      JOINT ShoulderLeft
      {
        OFFSET -13.330678 -2.337313 -5.809762
        CHANNELS 3 Zrotation Xrotation Yrotation
        JOINT ElbowLeft
        {
          OFFSET -4.626361 -22.253834 -2.004262
          CHANNELS 3 Zrotation Xrotation Yrotation
          JOINT WristLeft
          {
            OFFSET 0.646970 -23.014720 -6.865567
            CHANNELS 3 Zrotation Xrotation Yrotation
            JOINT HandLeft
            {
              OFFSET 1.018774 -3.400619 0.342098
              CHANNELS 3 Zrotation Xrotation Yrotation
              JOINT HandTipLeft
              {
                OFFSET 0.430778 -4.393072 -0.550150
                CHANNELS 3 Zrotation Xrotation Yrotation
                End Site
                {
                  OFFSET 0 0 0
                }
              }
              JOINT ThumbLeft
              {
                OFFSET -3.793544 -0.337177 -2.135371
                CHANNELS 3 Zrotation Xrotation Yrotation
                End Site
                {
                  OFFSET 0 0 0
                }
              }
            }
          }
        }
      }
      JOINT ShoulderRight
      {
        OFFSET 12.972483 -3.274408 3.146385
        CHANNELS 3 Zrotation Xrotation Yrotation
        JOINT ElbowRight
        {
          OFFSET 1.949049 -26.738231 1.150377
          CHANNELS 3 Zrotation Xrotation Yrotation
          JOINT WristRight
          {
            OFFSET 1.321662 -20.613612 -5.291553
            CHANNELS 3 Zrotation Xrotation Yrotation
            JOINT HandRight
            {
              OFFSET -2.006793 -4.278613 -0.757076
              CHANNELS 3 Zrotation Xrotation Yrotation
              JOINT HandTipRight
              {
                OFFSET 0.398419 -5.772887 -0.535016
                CHANNELS 3 Zrotation Xrotation Yrotation
                End Site
                {
                  OFFSET 0 0 0
                }
              }
              JOINT ThumbRight
              {
                OFFSET -3.188869 1.104324 -1.601610
                CHANNELS 3 Zrotation Xrotation Yrotation
                End Site
                {
                  OFFSET 0 0 0
                }
              }
            }
          }
        }
      }
    }
  }
  JOINT HipLeft
  {
    OFFSET -6.003277 1.110717 -5.020037
    CHANNELS 3 Zrotation Xrotation Yrotation
    JOINT KneeLeft
    {
      OFFSET -5.770046 -29.673248 1.688727
      CHANNELS 3 Zrotation Xrotation Yrotation
      JOINT AnkleLeft
      {
        OFFSET -3.545077 -32.515044 7.786887
        CHANNELS 3 Zrotation Xrotation Yrotation
        JOINT FootLeft
        {
          OFFSET 3.577388 -6.862760 -0.201348
          CHANNELS 3 Zrotation Xrotation Yrotation
          End Site
          {
            OFFSET 0 0 0
          }
        }
      }
    }
  }
  JOINT HipRight
  {
    OFFSET 5.705560 0.328858 -1.291173
    CHANNELS 3 Zrotation Xrotation Yrotation
    JOINT KneeRight
    {
      OFFSET -4.516323 -30.395758 4.917132
      CHANNELS 3 Zrotation Xrotation Yrotation
      JOINT AnkleRight
      {
        OFFSET -5.598454 -33.186264 7.729030
        CHANNELS 3 Zrotation Xrotation Yrotation
        JOINT FootRight
        {
          OFFSET 2.030100 -2.585369 -9.969493
          CHANNELS 3 Zrotation Xrotation Yrotation
          End Site
          {
            OFFSET 0 0 0
          }
        }
      }
    }
  }
}
MOTION
Frames: 14
Frame Time: 0.033333
41.209238 62.655127 369.890983 -10.181563 -13.587716 -20.089996 -0.378241 0.406546 18.570674 0.766428 0.138973 -0.489082 -14.742722 12.909289 4.525353 0.000000 0.000000 0.000000 11.491649 4.676345 0.959461 -0.261469 -2.172316 -2.414618 1.658824 -32.409688 -10.758645 -7.331278 52.469158 12.740614 0.000000 0.000000 0.000000 0.000000 0.000000 0.000000 13.519129 -2.764606 -1.637231 -0.225753 14.184101 -0.706955 24.871771 -9.628550 4.060791 -38.960884 5.340245 4.432234 0.000000 0.000000 0.000000 0.000000 0.000000 0.000000 -5.257038 33.343002 18.569847 -10.805524 -19.299483 -3.765797 -6.419849 51.709112 44.406559 0.000000 0.000000 0.000000 13.626920 26.071018 15.703320 -10.036631 -9.573864 -0.664124 2.650596 -0.097475 -15.818043 0.000000 0.000000 0.000000
41.233156 62.707162 370.292452 -11.354930 -13.344831 -19.344600 -0.582451 0.580347 17.704621 0.523513 0.046470 -0.545264 -13.357732 12.838647 4.421406 0.000000 0.000000 0.000000 14.881305 5.883068 0.133403 0.745203 -6.462629 -2.734631 4.058156 -29.526091 -8.114705 -3.148713 48.287990 6.747569 0.000000 0.000000 0.000000 0.000000 0.000000 0.000000 15.397564 -3.000087 -1.639217 -0.519508 14.678754 -0.684348 26.977717 -15.507079 8.951668 -42.837343 13.778374 5.903345 0.000000 0.000000 0.000000 0.000000 0.000000 0.000000 -0.381182 33.194776 16.409545 -11.424150 -19.773324 -3.251438 -6.610611 55.026806 44.331121 0.000000 0.000000 0.000000 15.820184 25.181234 14.610724 -10.787990 -7.576403 -1.136032 5.046084 -1.420740 -23.264597 0.000000 0.000000 0.000000
41.045518 62.745829 370.700655 -12.583510 -13.290352 -20.548279 -0.635521 0.812965 18.755551 0.319122 0.028048 -0.593148 -12.550137 11.779170 4.358240 0.000000 0.000000 0.000000 18.492252 7.954478 -1.037294 3.564604 -12.254725 -2.997527 0.493743 -20.906260 -4.714231 -2.588306 34.133449 5.747328 0.000000 0.000000 0.000000 0.000000 0.000000 0.000000 16.599141 -2.532554 -1.602755 0.122115 12.820676 -0.981320 23.030962 -15.549836 9.653985 -38.579901 16.993225 4.786697 0.000000 0.000000 0.000000 0.000000 0.000000 0.000000 4.339041 32.809516 16.240839 -13.897101 -18.776364 -3.421764 -5.753229 57.867582 44.461775 0.000000 0.000000 0.000000 17.346010 25.641617 15.367030 -11.455123 -5.821642 -1.542193 6.537523 0.419397 -23.220256 0.000000 0.000000 0.000000
41.054356 62.771896 371.332981 -13.275938 -13.650853 -20.422198 -0.612966 1.032088 18.503264 0.042789 0.126168 -0.601104 -13.979958 11.501392 4.755123 0.000000 0.000000 0.000000 23.230050 10.766454 -2.964145 5.858738 -18.785980 -2.281674 -4.333494 -15.061983 -1.660979 -1.144563 20.071723 4.721233 0.000000 0.000000 0.000000 0.000000 0.000000 0.000000 16.597441 -0.973632 -1.540572 0.829384 10.309065 -1.027732 22.928412 -15.775628 10.235586 -37.202336 18.470001 4.196993 0.000000 0.000000 0.000000 0.000000 0.000000 0.000000 7.477231 32.087976 15.249011 -15.206900 -17.333976 -3.473283 -6.402258 56.291129 43.099701 0.000000 0.000000 0.000000 18.471934 26.338812 14.744839 -11.874760 -5.945679 -1.623722 6.393698 2.492034 -20.065461 0.000000 0.000000 0.000000
41.222367 62.878474 372.026225 -13.290015 -14.250716 -20.206206 -0.476430 1.214200 18.214655 -0.307139 0.250072 -0.567279 -18.268708 12.731226 5.832620 0.000000 0.000000 0.000000 25.448933 12.207597 -4.054062 9.611028 -23.660771 -1.650805 -7.206681 -3.248631 2.344150 -0.860202 4.137635 2.582662 0.000000 0.000000 0.000000 0.000000 0.000000 0.000000 16.725890 -0.009726 -1.577293 0.413325 8.349591 -0.879515 22.860297 -11.839476 7.280018 -36.193380 15.533274 3.980023 0.000000 0.000000 0.000000 0.000000 0.000000 0.000000 8.584542 31.183311 14.790913 -15.686982 -15.851907 -3.458437 -5.509981 57.641915 43.221271 0.000000 0.000000 0.000000 18.385381 27.230139 14.245461 -11.904064 -6.386395 -1.609731 5.109934 3.423098 -14.853414 0.000000 0.000000 0.000000
41.298019 63.042953 372.845404 -13.661956 -14.718785 -21.180033 -0.451958 1.279788 19.076171 -0.190264 0.172670 -0.592275 -21.511139 13.836947 6.846036 0.000000 0.000000 0.000000 26.886987 13.071018 -4.766131 13.607140 -26.949837 -1.075670 -12.124369 8.092005 6.259674 -2.369309 -9.727302 1.231752 0.000000 0.000000 0.000000 0.000000 0.000000 0.000000 15.948862 1.671594 -1.537770 1.663457 5.793813 -1.133005 16.465866 -7.939536 5.631476 -29.129685 13.673795 2.178271 0.000000 0.000000 0.000000 0.000000 0.000000 0.000000 8.889698 30.694958 15.726217 -16.348631 -14.604405 -3.646162 -5.487176 55.747033 42.128672 0.000000 0.000000 0.000000 17.954933 29.235856 14.817640 -11.605505 -6.490466 -1.637967 2.689507 0.274549 -9.768769 0.000000 0.000000 0.000000
41.354336 63.256949 373.717829 -13.936905 -15.199997 -22.084590 -0.223378 1.244303 19.841317 -0.017873 0.113799 -0.607074 -24.841249 14.762440 7.940198 0.000000 0.000000 0.000000 27.308434 12.621866 -4.827914 16.264084 -27.595397 -1.521319 -19.459404 21.648009 11.411467 -5.387498 -21.995821 -1.722901 0.000000 0.000000 0.000000 0.000000 0.000000 0.000000 14.515174 3.101541 -1.462176 3.362392 4.004518 -1.402107 13.528147 -4.749412 4.374550 -25.901218 13.009714 1.815323 0.000000 0.000000 0.000000 0.000000 0.000000 0.000000 8.460432 31.160579 16.644443 -17.335258 -14.464621 -4.113593 -2.559327 55.787139 40.860800 0.000000 0.000000 0.000000 17.260533 31.606272 15.342677 -11.102678 -7.864868 -1.405864 0.248050 -3.565605 -6.454077 0.000000 0.000000 0.000000
41.780883 63.282573 374.720521 -13.676149 -15.661372 -24.907607 -0.042917 1.205199 22.613029 0.152919 0.211309 -0.582827 -29.063339 15.641177 9.162774 0.000000 0.000000 0.000000 28.218401 13.270786 -5.577366 17.046346 -27.958566 -1.236161 -28.654173 28.259760 16.745139 -3.116202 -30.289327 -3.980302 0.000000 0.000000 0.000000 0.000000 0.000000 0.000000 12.349312 2.415218 -1.413283 5.031940 6.030116 -1.547472 12.800291 -3.570263 3.319948 -25.209681 10.735876 1.989311 0.000000 0.000000 0.000000 0.000000 0.000000 0.000000 3.240919 30.645333 21.136784 -15.212852 -14.794152 -4.036762 -6.541112 52.975270 42.086604 0.000000 0.000000 0.000000 13.095621 35.019380 18.730792 -9.366936 -10.505623 -0.690129 -2.857558 -10.253822 -3.583842 0.000000 0.000000 0.000000
41.790899 63.374044 375.730963 -13.634379 -15.934737 -27.620899 0.183369 1.043163 25.247337 0.406622 0.351803 -0.571658 -32.454117 15.968595 10.138059 0.000000 0.000000 0.000000 29.071532 14.260098 -6.400764 14.710488 -26.201755 -1.191846 -23.060362 25.451488 13.890866 2.970568 -25.339044 -2.576179 0.000000 0.000000 0.000000 0.000000 0.000000 0.000000 8.672441 2.636328 -1.095328 8.567606 6.396908 -1.900066 13.675316 -1.165391 1.424893 -27.291810 7.319402 2.894184 0.000000 0.000000 0.000000 0.000000 0.000000 0.000000 -1.180166 28.694893 25.357253 -12.745509 -13.908748 -3.820100 -9.705372 50.384222 42.865170 0.000000 0.000000 0.000000 9.230235 37.141379 22.343999 -7.757053 -11.899492 -0.065152 -5.223867 -19.198699 -8.042278 0.000000 0.000000 0.000000
41.507003 63.514203 376.648078 -13.724192 -16.008066 -28.441938 0.536442 1.042438 25.986999 0.523477 0.501025 -0.553196 -35.337575 15.192043 10.629033 0.000000 0.000000 0.000000 31.504300 15.246546 -7.801802 11.802801 -25.822911 -0.501402 -26.183328 27.045132 15.475202 10.953843 -28.358189 -1.794078 0.000000 0.000000 0.000000 0.000000 0.000000 0.000000 8.010962 3.993736 -0.913812 7.932121 6.324374 -1.439128 14.201648 -3.862363 2.531019 -27.699981 11.208993 3.073228 0.000000 0.000000 0.000000 0.000000 0.000000 0.000000 -4.389173 26.710098 27.236919 -9.922229 -14.013268 -3.532653 -7.213870 51.532912 41.767996 0.000000 0.000000 0.000000 7.246506 37.752349 23.728004 -6.139769 -12.290581 0.511270 -9.787768 -31.069636 -22.763228 0.000000 0.000000 0.000000
40.945649 63.718821 377.527863 -14.191273 -16.260205 -29.742395 0.860894 1.006392 27.115167 0.876014 0.477109 -0.586057 -38.359730 15.548039 11.681823 0.000000 0.000000 0.000000 32.294851 16.201213 -8.578447 9.795123 -24.100880 -0.570835 -27.080674 28.281854 16.172495 14.698437 -32.065080 -1.079420 0.000000 0.000000 0.000000 0.000000 0.000000 0.000000 7.466395 6.089936 -0.702036 8.304455 6.021894 -1.366038 10.459752 -6.709841 4.459216 -25.215973 14.537358 2.493435 0.000000 0.000000 0.000000 0.000000 0.000000 0.000000 -7.391834 24.623597 29.422525 -6.469877 -13.732605 -3.043123 -8.519636 50.838079 41.684412 0.000000 0.000000 0.000000 6.035545 39.358792 25.255733 -5.383619 -12.789366 0.880906 -18.526708 -42.176352 -36.319752 0.000000 0.000000 0.000000
39.808177 63.882088 378.197204 -14.737636 -16.377756 -31.040947 1.002454 1.115373 28.277680 0.970754 0.354536 -0.619797 -39.917602 14.754840 12.022023 0.000000 0.000000 0.000000 34.506604 17.277642 -9.842179 6.142589 -22.468363 -0.305133 -23.105921 26.651730 14.289620 13.455336 -29.620462 -1.567248 0.000000 0.000000 0.000000 0.000000 0.000000 0.000000 7.729680 7.749940 -0.574564 8.917026 6.722676 -1.490840 3.710376 -11.371851 7.053471 -20.136041 19.444667 1.206499 0.000000 0.000000 0.000000 0.000000 0.000000 0.000000 -8.887435 22.537969 31.126577 -4.003520 -13.640141 -2.724098 -12.765574 49.378733 42.686293 0.000000 0.000000 0.000000 5.754878 40.928847 26.527135 -5.041903 -12.957995 1.147493 -25.735962 -47.398882 -45.038341 0.000000 0.000000 0.000000
38.393756 63.859587 378.782125 -15.064302 -16.343116 -32.921134 0.976873 1.224681 30.106197 1.075593 0.312688 -0.641197 -39.487965 12.787406 11.324239 0.000000 0.000000 0.000000 35.527550 17.330523 -10.228783 4.459298 -18.694660 -0.980705 -22.420566 24.185707 13.721750 12.681071 -27.999119 -2.012453 0.000000 0.000000 0.000000 0.000000 0.000000 0.000000 9.142032 9.987043 -0.560287 8.322283 5.338610 -1.569783 -14.287357 -14.036571 8.590171 -0.706256 20.854225 -4.401360 0.000000 0.000000 0.000000 0.000000 0.000000 0.000000 -9.740545 20.134878 33.186134 -2.263411 -12.742101 -2.552310 -19.874476 46.672504 45.172596 0.000000 0.000000 0.000000 5.467541 42.504023 28.443417 -4.963072 -12.973930 1.389105 -27.373957 -47.717487 -45.500984 0.000000 0.000000 0.000000
36.573400 63.787660 379.328664 -15.161733 -16.214900 -32.312218 0.905673 1.137570 29.508752 1.061982 0.280364 -0.651970 -40.604818 11.843271 11.303189 0.000000 0.000000 0.000000 35.763486 18.205414 -10.593800 3.792260 -16.633346 -1.058548 -21.119373 22.109982 13.006541 13.495696 -26.135953 -2.041787 0.000000 0.000000 0.000000 0.000000 0.000000 0.000000 10.606027 10.815833 -0.712712 8.009823 6.797097 -1.797760 -28.091051 -12.028176 6.657670 11.921602 17.429059 -5.233964 0.000000 0.000000 0.000000 0.000000 0.000000 0.000000 -9.148933 18.998989 32.482827 -1.352207 -12.483019 -2.402703 -32.058245 39.270165 46.980106 0.000000 0.000000 0.000000 8.293422 44.286626 26.637067 -6.269123 -13.442546 1.220229 -24.735788 -45.466234 -39.038196 0.000000 0.000000 0.000000
